# xmcd
#
# Track frame offsets:
#	150
#	13211
#	25792
#	38998
#	51256
#	61175
#	73537
#	84595
#	96241
#	107086
#
# Disc length: 1591 seconds
#
# Revision: 0
# Processed by: cddbd v1.5.2PL0 Copyright (c) Steve Scherf et al.
# Submitted via: dBpowerAMP V4.0
#
DISCID=8006350a
DTITLE=Hank Williams - American Music Legends Volume Two
DYEAR=2006
DGENRE=Country
TTITLE0=Jambalaya (On The Bayou)
TTITLE1=I'm So Lonesome I Could Cry
TTITLE2=Hey, Good Lookin'
TTITLE3=Your Cheatin' Heart
TTITLE4=Honky Tonk Blues
TTITLE5=Cold, Cold Heart
TTITLE6=(I Heard That) Lonesome Whistle
TTITLE7=Kaw-Liga
TTITLE8=I Can't Help It (If I'm Still In Love With You)
TTITLE9=I Saw The Light
EXTD=
EXTT0=
EXTT1=
EXTT2=
EXTT3=
EXTT4=
EXTT5=
EXTT6=
EXTT7=
EXTT8=
EXTT9=
PLAYORDER=
